<svg id="Layer_1" data-name="Layer 1" xmlns="http://www.w3.org/2000/svg" viewBox="0 0 3030 16"><defs><style>.cls-1{fill:#fff;}.cls-2{fill:none;stroke:#dfdfdf;stroke-miterlimit:10;}.cls-3{fill:#dfdfdf;}</style></defs><title>ruler</title><rect class="cls-1" width="3043.97" height="16"/><rect class="cls-2" x="2985.06" y="12.02" width="1" height="3.98"/><rect class="cls-2" x="2995.06" y="12.02" width="1" height="3.98"/><rect class="cls-2" x="3005.06" y="12.02" width="1" height="3.98"/><rect class="cls-2" x="3015.06" y="12.02" width="1" height="3.98"/><rect class="cls-2" x="3025.06" y="12.02" width="1" height="3.98"/><rect class="cls-2" x="3000" width="1" height="16"/><rect class="cls-2" x="2990" y="10" width="0.94" height="6"/><rect class="cls-2" x="3000" y="10" width="0.94" height="6"/><rect class="cls-2" x="3010" y="10" width="0.94" height="6"/><rect class="cls-2" x="3020" y="10" width="0.94" height="6"/><rect class="cls-3" width="1" height="16"/><polygon class="cls-3" points="2980.95 15 2980.95 10 2980.01 10 2980.01 15 2976.06 15 2976.06 12.02 2975.06 12.02 2975.06 15 2970.95 15 2970.95 10 2970.01 10 2970.01 15 2966.06 15 2966.06 12.02 2965.06 12.02 2965.06 15 2960.95 15 2960.95 10 2960.01 10 2960.01 15 2956.06 15 2956.06 12.02 2955.06 12.02 2955.06 15 2951 15 2951 0 2950 0 2950 15 2946.06 15 2946.06 12.02 2945.06 12.02 2945.06 15 2940.95 15 2940.95 10 2940.01 10 2940.01 15 2936.06 15 2936.06 12.02 2935.06 12.02 2935.06 15 2930.95 15 2930.95 10 2930.01 10 2930.01 15 2926.06 15 2926.06 12.02 2925.06 12.02 2925.06 15 2920.95 15 2920.95 10 2920.01 10 2920.01 15 2916.06 15 2916.06 12.02 2915.06 12.02 2915.06 15 2910.95 15 2910.95 10 2910.01 10 2910.01 15 2906.06 15 2906.06 12.02 2905.06 12.02 2905.06 15 2901 15 2901 0 2900 0 2900 15 2896.06 15 2896.06 12.02 2895.06 12.02 2895.06 15 2890.95 15 2890.95 10 2890.01 10 2890.01 15 2886.06 15 2886.06 12.02 2885.06 12.02 2885.06 15 2880.95 15 2880.95 10 2880.01 10 2880.01 15 2876.06 15 2876.06 12.02 2875.06 12.02 2875.06 15 2870.95 15 2870.95 10 2870.01 10 2870.01 15 2866.06 15 2866.06 12.02 2865.06 12.02 2865.06 15 2860.95 15 2860.95 10 2860.01 10 2860.01 15 2856.06 15 2856.06 12.02 2855.06 12.02 2855.06 15 2851 15 2851 0 2850 0 2850 15 2846.06 15 2846.06 12.02 2845.06 12.02 2845.06 15 2840.95 15 2840.95 10 2840.01 10 2840.01 15 2836.06 15 2836.06 12.02 2835.06 12.02 2835.06 15 2830.95 15 2830.95 10 2830.01 10 2830.01 15 2826.06 15 2826.06 12.02 2825.06 12.02 2825.06 15 2820.95 15 2820.95 10 2820.01 10 2820.01 15 2816.06 15 2816.06 12.02 2815.06 12.02 2815.06 15 2810.95 15 2810.95 10 2810.01 10 2810.01 15 2806.06 15 2806.06 12.02 2805.06 12.02 2805.06 15 2801 15 2801 0 2800 0 2800 15 2796.06 15 2796.06 12.02 2795.06 12.02 2795.06 15 2790.95 15 2790.95 10 2790.01 10 2790.01 15 2786.06 15 2786.06 12.02 2785.06 12.02 2785.06 15 2780.95 15 2780.95 10 2780.01 10 2780.01 15 2776.06 15 2776.06 12.02 2775.06 12.02 2775.06 15 2770.95 15 2770.95 10 2770.01 10 2770.01 15 2766.06 15 2766.06 12.02 2765.06 12.02 2765.06 15 2760.95 15 2760.95 10 2760.01 10 2760.01 15 2756.06 15 2756.06 12.02 2755.06 12.02 2755.06 15 2751 15 2751 0 2750 0 2750 15 2746.06 15 2746.06 12.02 2745.06 12.02 2745.06 15 2740.95 15 2740.95 10 2740.01 10 2740.01 15 2736.06 15 2736.06 12.02 2735.06 12.02 2735.06 15 2730.95 15 2730.95 10 2730.01 10 2730.01 15 2726.06 15 2726.06 12.02 2725.06 12.02 2725.06 15 2720.95 15 2720.95 10 2720.01 10 2720.01 15 2716.06 15 2716.06 12.02 2715.06 12.02 2715.06 15 2710.95 15 2710.95 10 2710.01 10 2710.01 15 2706.06 15 2706.06 12.02 2705.06 12.02 2705.06 15 2701 15 2701 0 2700 0 2700 15 2696.06 15 2696.06 12.02 2695.06 12.02 2695.06 15 2690.95 15 2690.95 10 2690.01 10 2690.01 15 2686.06 15 2686.06 12.02 2685.06 12.02 2685.06 15 2680.95 15 2680.95 10 2680.01 10 2680.01 15 2676.06 15 2676.06 12.02 2675.06 12.02 2675.06 15 2670.95 15 2670.95 10 2670.01 10 2670.01 15 2666.06 15 2666.06 12.02 2665.06 12.02 2665.06 15 2660.95 15 2660.95 10 2660.01 10 2660.01 15 2656.06 15 2656.06 12.02 2655.06 12.02 2655.06 15 2651 15 2651 0 2650 0 2650 15 2646.06 15 2646.06 12.02 2645.06 12.02 2645.06 15 2640.95 15 2640.95 10 2640.01 10 2640.01 15 2636.06 15 2636.06 12.02 2635.06 12.02 2635.06 15 2630.95 15 2630.95 10 2630.01 10 2630.01 15 2626.06 15 2626.06 12.02 2625.06 12.02 2625.06 15 2620.95 15 2620.95 10 2620.01 10 2620.01 15 2616.06 15 2616.06 12.02 2615.06 12.02 2615.06 15 2610.95 15 2610.95 10 2610.01 10 2610.01 15 2606.06 15 2606.06 12.02 2605.06 12.02 2605.06 15 2601 15 2601 0 2600 0 2600 15 2596.06 15 2596.06 12.02 2595.06 12.02 2595.06 15 2590.95 15 2590.95 10 2590.01 10 2590.01 15 2586.06 15 2586.06 12.02 2585.06 12.02 2585.06 15 2580.95 15 2580.95 10 2580.01 10 2580.01 15 2576.06 15 2576.06 12.02 2575.06 12.02 2575.06 15 2570.95 15 2570.95 10 2570.01 10 2570.01 15 2566.06 15 2566.06 12.02 2565.06 12.02 2565.06 15 2560.95 15 2560.95 10 2560.01 10 2560.01 15 2556.06 15 2556.06 12.02 2555.06 12.02 2555.06 15 2551 15 2551 0 2550 0 2550 15 2546.06 15 2546.06 12.02 2545.06 12.02 2545.06 15 2540.95 15 2540.95 10 2540.01 10 2540.01 15 2536.06 15 2536.06 12.02 2535.06 12.02 2535.06 15 2530.95 15 2530.95 10 2530.01 10 2530.01 15 2526.06 15 2526.06 12.02 2525.06 12.02 2525.06 15 2520.95 15 2520.95 10 2520.01 10 2520.01 15 2516.06 15 2516.06 12.02 2515.06 12.02 2515.06 15 2510.95 15 2510.95 10 2510.01 10 2510.01 15 2506.06 15 2506.06 12.02 2505.06 12.02 2505.06 15 2501 15 2501 0 2500 0 2500 15 2496.06 15 2496.06 12.02 2495.06 12.02 2495.06 15 2490.95 15 2490.95 10 2490.01 10 2490.01 15 2486.06 15 2486.06 12.02 2485.06 12.02 2485.06 15 2480.95 15 2480.95 10 2480.01 10 2480.01 15 2476.06 15 2476.06 12.02 2475.06 12.02 2475.06 15 2470.95 15 2470.95 10 2470.01 10 2470.01 15 2466.06 15 2466.06 12.02 2465.06 12.02 2465.06 15 2460.95 15 2460.95 10 2460.01 10 2460.01 15 2456.06 15 2456.06 12.02 2455.06 12.02 2455.06 15 2451 15 2451 0 2450 0 2450 15 2446.06 15 2446.06 12.02 2445.06 12.02 2445.06 15 2440.95 15 2440.95 10 2440.01 10 2440.01 15 2436.06 15 2436.06 12.02 2435.06 12.02 2435.06 15 2430.95 15 2430.95 10 2430.01 10 2430.01 15 2426.06 15 2426.06 12.02 2425.06 12.02 2425.06 15 2420.95 15 2420.95 10 2420.01 10 2420.01 15 2416.06 15 2416.06 12.02 2415.06 12.02 2415.06 15 2410.95 15 2410.95 10 2410.01 10 2410.01 15 2406.06 15 2406.06 12.02 2405.06 12.02 2405.06 15 2401 15 2401 0 2400 0 2400 15 2396.06 15 2396.06 12.02 2395.06 12.02 2395.06 15 2390.95 15 2390.95 10 2390.01 10 2390.01 15 2386.06 15 2386.06 12.02 2385.06 12.02 2385.06 15 2380.95 15 2380.95 10 2380.01 10 2380.01 15 2376.06 15 2376.06 12.02 2375.06 12.02 2375.06 15 2370.95 15 2370.95 10 2370.01 10 2370.01 15 2366.06 15 2366.06 12.02 2365.06 12.02 2365.06 15 2360.95 15 2360.95 10 2360.01 10 2360.01 15 2356.06 15 2356.06 12.02 2355.06 12.02 2355.06 15 2351 15 2351 0 2350 0 2350 15 2346.06 15 2346.06 12.02 2345.06 12.02 2345.06 15 2340.95 15 2340.95 10 2340.01 10 2340.01 15 2336.06 15 2336.06 12.02 2335.06 12.02 2335.06 15 2330.95 15 2330.95 10 2330.01 10 2330.01 15 2326.06 15 2326.06 12.02 2325.06 12.02 2325.06 15 2320.95 15 2320.95 10 2320.01 10 2320.01 15 2316.06 15 2316.06 12.02 2315.06 12.02 2315.06 15 2310.95 15 2310.95 10 2310.01 10 2310.01 15 2306.06 15 2306.06 12.02 2305.06 12.02 2305.06 15 2301 15 2301 0 2300 0 2300 15 2296.06 15 2296.06 12.02 2295.06 12.02 2295.06 15 2290.95 15 2290.95 10 2290.01 10 2290.01 15 2286.06 15 2286.06 12.02 2285.06 12.02 2285.06 15 2280.95 15 2280.95 10 2280.01 10 2280.01 15 2276.06 15 2276.06 12.02 2275.06 12.02 2275.06 15 2270.95 15 2270.95 10 2270.01 10 2270.01 15 2266.06 15 2266.06 12.02 2265.06 12.02 2265.06 15 2260.95 15 2260.95 10 2260.01 10 2260.01 15 2256.06 15 2256.06 12.02 2255.06 12.02 2255.06 15 2251 15 2251 0 2250 0 2250 15 2246.06 15 2246.06 12.02 2245.06 12.02 2245.06 15 2240.95 15 2240.95 10 2240.01 10 2240.01 15 2236.06 15 2236.06 12.02 2235.06 12.02 2235.06 15 2230.95 15 2230.95 10 2230.01 10 2230.01 15 2226.06 15 2226.06 12.02 2225.06 12.02 2225.06 15 2220.95 15 2220.95 10 2220.01 10 2220.01 15 2216.06 15 2216.06 12.02 2215.06 12.02 2215.06 15 2210.95 15 2210.95 10 2210.01 10 2210.01 15 2206.06 15 2206.06 12.02 2205.06 12.02 2205.06 15 2201 15 2201 0 2200 0 2200 15 2196.06 15 2196.06 12.02 2195.06 12.02 2195.06 15 2190.95 15 2190.95 10 2190.01 10 2190.01 15 2186.06 15 2186.06 12.02 2185.06 12.02 2185.06 15 2180.95 15 2180.95 10 2180.01 10 2180.01 15 2176.06 15 2176.06 12.02 2175.06 12.02 2175.06 15 2170.95 15 2170.95 10 2170.01 10 2170.01 15 2166.06 15 2166.06 12.02 2165.06 12.02 2165.06 15 2160.95 15 2160.95 10 2160.01 10 2160.01 15 2156.06 15 2156.06 12.02 2155.06 12.02 2155.06 15 2151 15 2151 0 2150 0 2150 15 2146.06 15 2146.06 12.02 2145.06 12.02 2145.06 15 2140.95 15 2140.95 10 2140.01 10 2140.01 15 2136.06 15 2136.06 12.02 2135.06 12.02 2135.06 15 2130.95 15 2130.95 10 2130.01 10 2130.01 15 2126.06 15 2126.06 12.02 2125.06 12.02 2125.06 15 2120.95 15 2120.95 10 2120.01 10 2120.01 15 2116.06 15 2116.06 12.02 2115.06 12.02 2115.06 15 2110.95 15 2110.95 10 2110.01 10 2110.01 15 2106.06 15 2106.06 12.02 2105.06 12.02 2105.06 15 2101 15 2101 0 2100 0 2100 15 2096.06 15 2096.06 12.02 2095.06 12.02 2095.06 15 2090.95 15 2090.95 10 2090.01 10 2090.01 15 2086.06 15 2086.06 12.02 2085.06 12.02 2085.06 15 2080.95 15 2080.95 10 2080.01 10 2080.01 15 2076.06 15 2076.06 12.02 2075.06 12.02 2075.06 15 2070.95 15 2070.95 10 2070.01 10 2070.01 15 2066.06 15 2066.06 12.02 2065.06 12.02 2065.06 15 2060.95 15 2060.95 10 2060.01 10 2060.01 15 2056.06 15 2056.06 12.02 2055.06 12.02 2055.06 15 2051 15 2051 0 2050 0 2050 15 2046.06 15 2046.06 12.02 2045.06 12.02 2045.06 15 2040.95 15 2040.95 10 2040.01 10 2040.01 15 2036.06 15 2036.06 12.02 2035.06 12.02 2035.06 15 2030.95 15 2030.95 10 2030.01 10 2030.01 15 2026.06 15 2026.06 12.02 2025.06 12.02 2025.06 15 2020.95 15 2020.95 10 2020.01 10 2020.01 15 2016.06 15 2016.06 12.02 2015.06 12.02 2015.06 15 2010.95 15 2010.95 10 2010.01 10 2010.01 15 2006.06 15 2006.06 12.02 2005.06 12.02 2005.06 15 2001 15 2001 0 2000 0 2000 15 1996.06 15 1996.06 12.02 1995.06 12.02 1995.06 15 1990.95 15 1990.95 10 1990.01 10 1990.01 15 1986.06 15 1986.06 12.02 1985.06 12.02 1985.06 15 1980.95 15 1980.95 10 1980.01 10 1980.01 15 1976.06 15 1976.06 12.02 1975.06 12.02 1975.06 15 1970.95 15 1970.95 10 1970.01 10 1970.01 15 1966.06 15 1966.06 12.02 1965.06 12.02 1965.06 15 1960.95 15 1960.95 10 1960.01 10 1960.01 15 1956.06 15 1956.06 12.02 1955.06 12.02 1955.06 15 1951 15 1951 0 1950 0 1950 15 1946.06 15 1946.06 12.02 1945.06 12.02 1945.06 15 1940.95 15 1940.95 10 1940.01 10 1940.01 15 1936.06 15 1936.06 12.02 1935.06 12.02 1935.06 15 1930.95 15 1930.95 10 1930.01 10 1930.01 15 1926.06 15 1926.06 12.02 1925.06 12.02 1925.06 15 1920.95 15 1920.95 10 1920.01 10 1920.01 15 1916.06 15 1916.06 12.02 1915.06 12.02 1915.06 15 1910.95 15 1910.95 10 1910.01 10 1910.01 15 1906.06 15 1906.06 12.02 1905.06 12.02 1905.06 15 1901 15 1901 0 1900 0 1900 15 1896.06 15 1896.06 12.02 1895.06 12.02 1895.06 15 1890.95 15 1890.95 10 1890.01 10 1890.01 15 1886.06 15 1886.06 12.02 1885.06 12.02 1885.06 15 1880.95 15 1880.95 10 1880.01 10 1880.01 15 1876.06 15 1876.06 12.02 1875.06 12.02 1875.06 15 1870.95 15 1870.95 10 1870.01 10 1870.01 15 1866.06 15 1866.06 12.02 1865.06 12.02 1865.06 15 1860.95 15 1860.95 10 1860.01 10 1860.01 15 1856.06 15 1856.06 12.02 1855.06 12.02 1855.06 15 1851 15 1851 0 1850 0 1850 15 1846.06 15 1846.06 12.02 1845.06 12.02 1845.06 15 1840.95 15 1840.95 10 1840.01 10 1840.01 15 1836.06 15 1836.06 12.02 1835.06 12.02 1835.06 15 1830.95 15 1830.95 10 1830.01 10 1830.01 15 1826.06 15 1826.06 12.02 1825.06 12.02 1825.06 15 1820.95 15 1820.95 10 1820.01 10 1820.01 15 1816.06 15 1816.06 12.02 1815.06 12.02 1815.06 15 1810.95 15 1810.95 10 1810.01 10 1810.01 15 1806.06 15 1806.06 12.02 1805.06 12.02 1805.06 15 1801 15 1801 0 1800 0 1800 15 1796.06 15 1796.06 12.02 1795.06 12.02 1795.06 15 1790.95 15 1790.95 10 1790.01 10 1790.01 15 1786.06 15 1786.06 12.02 1785.06 12.02 1785.06 15 1780.95 15 1780.95 10 1780.01 10 1780.01 15 1776.06 15 1776.06 12.02 1775.06 12.02 1775.06 15 1770.95 15 1770.95 10 1770.01 10 1770.01 15 1766.06 15 1766.06 12.02 1765.06 12.02 1765.06 15 1760.95 15 1760.95 10 1760.01 10 1760.01 15 1756.06 15 1756.06 12.02 1755.06 12.02 1755.06 15 1751 15 1751 0 1750 0 1750 15 1746.06 15 1746.06 12.02 1745.06 12.02 1745.06 15 1740.95 15 1740.95 10 1740.01 10 1740.01 15 1736.06 15 1736.06 12.02 1735.06 12.02 1735.06 15 1730.95 15 1730.95 10 1730.01 10 1730.01 15 1726.06 15 1726.06 12.02 1725.06 12.02 1725.06 15 1720.95 15 1720.95 10 1720.01 10 1720.01 15 1716.06 15 1716.06 12.02 1715.06 12.02 1715.06 15 1710.95 15 1710.95 10 1710.01 10 1710.01 15 1706.06 15 1706.06 12.02 1705.06 12.02 1705.06 15 1701 15 1701 0 1700 0 1700 15 1696.06 15 1696.06 12.02 1695.06 12.02 1695.06 15 1690.95 15 1690.95 10 1690.01 10 1690.01 15 1686.06 15 1686.06 12.02 1685.06 12.02 1685.06 15 1680.95 15 1680.95 10 1680.01 10 1680.01 15 1676.06 15 1676.06 12.02 1675.06 12.02 1675.06 15 1670.95 15 1670.95 10 1670.01 10 1670.01 15 1666.06 15 1666.06 12.02 1665.06 12.02 1665.06 15 1660.95 15 1660.95 10 1660.01 10 1660.01 15 1656.06 15 1656.06 12.02 1655.06 12.02 1655.06 15 1651 15 1651 0 1650 0 1650 15 1646.06 15 1646.06 12.02 1645.06 12.02 1645.06 15 1640.95 15 1640.95 10 1640.01 10 1640.01 15 1636.06 15 1636.06 12.02 1635.06 12.02 1635.06 15 1630.95 15 1630.95 10 1630.01 10 1630.01 15 1626.06 15 1626.06 12.02 1625.06 12.02 1625.06 15 1620.95 15 1620.95 10 1620.01 10 1620.01 15 1616.06 15 1616.06 12.02 1615.06 12.02 1615.06 15 1610.95 15 1610.95 10 1610.01 10 1610.01 15 1606.06 15 1606.06 12.02 1605.06 12.02 1605.06 15 1601 15 1601 0 1600 0 1600 15 1596.06 15 1596.06 12.02 1595.06 12.02 1595.06 15 1590.95 15 1590.95 10 1590.01 10 1590.01 15 1586.06 15 1586.06 12.02 1585.06 12.02 1585.06 15 1580.95 15 1580.95 10 1580.01 10 1580.01 15 1576.06 15 1576.06 12.02 1575.06 12.02 1575.06 15 1570.95 15 1570.95 10 1570.01 10 1570.01 15 1566.06 15 1566.06 12.02 1565.06 12.02 1565.06 15 1560.95 15 1560.95 10 1560.01 10 1560.01 15 1556.06 15 1556.06 12.02 1555.06 12.02 1555.06 15 1551 15 1551 0 1550 0 1550 15 1546.06 15 1546.06 12.02 1545.06 12.02 1545.06 15 1540.95 15 1540.95 10 1540.01 10 1540.01 15 1536.06 15 1536.06 12.02 1535.06 12.02 1535.06 15 1530.95 15 1530.95 10 1530.01 10 1530.01 15 1526.06 15 1526.06 12.02 1525.06 12.02 1525.06 15 1520.95 15 1520.95 10 1520.01 10 1520.01 15 1516.06 15 1516.06 12.02 1515.06 12.02 1515.06 15 1510.95 15 1510.95 10 1510.01 10 1510.01 15 1506.06 15 1506.06 12.02 1505.06 12.02 1505.06 15 1501 15 1501 0 1500 0 1500 15 1496.06 15 1496.06 12.02 1495.06 12.02 1495.06 15 1490.95 15 1490.95 10 1490.01 10 1490.01 15 1486.06 15 1486.06 12.02 1485.06 12.02 1485.06 15 1480.95 15 1480.95 10 1480.01 10 1480.01 15 1476.06 15 1476.06 12.02 1475.06 12.02 1475.06 15 1470.95 15 1470.95 10 1470.01 10 1470.01 15 1466.06 15 1466.06 12.02 1465.06 12.02 1465.06 15 1460.95 15 1460.95 10 1460.01 10 1460.01 15 1456.06 15 1456.06 12.02 1455.06 12.02 1455.06 15 1451 15 1451 0 1450 0 1450 15 1446.06 15 1446.06 12.02 1445.06 12.02 1445.06 15 1440.95 15 1440.95 10 1440.01 10 1440.01 15 1436.06 15 1436.06 12.02 1435.06 12.02 1435.06 15 1430.95 15 1430.95 10 1430.01 10 1430.01 15 1426.06 15 1426.06 12.02 1425.06 12.02 1425.06 15 1420.95 15 1420.95 10 1420.01 10 1420.01 15 1416.06 15 1416.06 12.02 1415.06 12.02 1415.06 15 1410.95 15 1410.95 10 1410.01 10 1410.01 15 1406.06 15 1406.06 12.02 1405.06 12.02 1405.06 15 1401 15 1401 0 1400 0 1400 15 1396.06 15 1396.06 12.02 1395.06 12.02 1395.06 15 1390.95 15 1390.95 10 1390.01 10 1390.01 15 1386.06 15 1386.06 12.02 1385.06 12.02 1385.06 15 1380.95 15 1380.95 10 1380.01 10 1380.01 15 1376.06 15 1376.06 12.02 1375.06 12.02 1375.06 15 1370.95 15 1370.95 10 1370.01 10 1370.01 15 1366.06 15 1366.06 12.02 1365.06 12.02 1365.06 15 1360.95 15 1360.95 10 1360.01 10 1360.01 15 1356.06 15 1356.06 12.02 1355.06 12.02 1355.06 15 1351 15 1351 0 1350 0 1350 15 1346.06 15 1346.06 12.02 1345.06 12.02 1345.06 15 1340.95 15 1340.95 10 1340.01 10 1340.01 15 1336.06 15 1336.06 12.02 1335.06 12.02 1335.06 15 1330.95 15 1330.95 10 1330.01 10 1330.01 15 1326.06 15 1326.06 12.02 1325.06 12.02 1325.06 15 1320.95 15 1320.95 10 1320.01 10 1320.01 15 1316.06 15 1316.06 12.02 1315.06 12.02 1315.06 15 1310.95 15 1310.95 10 1310.01 10 1310.01 15 1306.06 15 1306.06 12.02 1305.06 12.02 1305.06 15 1301 15 1301 0 1300 0 1300 15 1296.06 15 1296.06 12.02 1295.06 12.02 1295.06 15 1290.95 15 1290.95 10 1290.01 10 1290.01 15 1286.06 15 1286.06 12.02 1285.06 12.02 1285.06 15 1280.95 15 1280.95 10 1280.01 10 1280.01 15 1276.06 15 1276.06 12.02 1275.06 12.02 1275.06 15 1270.95 15 1270.95 10 1270.01 10 1270.01 15 1266.06 15 1266.06 12.02 1265.06 12.02 1265.06 15 1260.95 15 1260.95 10 1260.01 10 1260.01 15 1256.06 15 1256.06 12.02 1255.06 12.02 1255.06 15 1251 15 1251 0 1250 0 1250 15 1246.06 15 1246.06 12.02 1245.06 12.02 1245.06 15 1240.95 15 1240.95 10 1240.01 10 1240.01 15 1236.06 15 1236.06 12.02 1235.06 12.02 1235.06 15 1230.95 15 1230.95 10 1230.01 10 1230.01 15 1226.06 15 1226.06 12.02 1225.06 12.02 1225.06 15 1220.95 15 1220.95 10 1220.01 10 1220.01 15 1216.06 15 1216.06 12.02 1215.06 12.02 1215.06 15 1210.95 15 1210.95 10 1210.01 10 1210.01 15 1206.06 15 1206.06 12.02 1205.06 12.02 1205.06 15 1201 15 1201 0 1200 0 1200 15 1196.06 15 1196.06 12.02 1195.06 12.02 1195.06 15 1190.95 15 1190.95 10 1190.01 10 1190.01 15 1186.06 15 1186.06 12.02 1185.06 12.02 1185.06 15 1180.95 15 1180.95 10 1180.01 10 1180.01 15 1176.06 15 1176.06 12.02 1175.06 12.02 1175.06 15 1170.95 15 1170.95 10 1170.01 10 1170.01 15 1166.06 15 1166.06 12.02 1165.06 12.02 1165.06 15 1160.95 15 1160.95 10 1160.01 10 1160.01 15 1156.06 15 1156.06 12.02 1155.06 12.02 1155.06 15 1151 15 1151 0 1150 0 1150 15 1146.06 15 1146.06 12.02 1145.06 12.02 1145.06 15 1140.95 15 1140.95 10 1140.01 10 1140.01 15 1136.06 15 1136.06 12.02 1135.06 12.02 1135.06 15 1130.95 15 1130.95 10 1130.01 10 1130.01 15 1126.06 15 1126.06 12.02 1125.06 12.02 1125.06 15 1120.95 15 1120.95 10 1120.01 10 1120.01 15 1116.06 15 1116.06 12.02 1115.06 12.02 1115.06 15 1110.95 15 1110.95 10 1110.01 10 1110.01 15 1106.06 15 1106.06 12.02 1105.06 12.02 1105.06 15 1101 15 1101 0 1100 0 1100 15 1096.06 15 1096.06 12.02 1095.06 12.02 1095.06 15 1090.95 15 1090.95 10 1090.01 10 1090.01 15 1086.06 15 1086.06 12.02 1085.06 12.02 1085.06 15 1080.95 15 1080.95 10 1080.01 10 1080.01 15 1076.06 15 1076.06 12.02 1075.06 12.02 1075.06 15 1070.95 15 1070.95 10 1070.01 10 1070.01 15 1066.06 15 1066.06 12.02 1065.06 12.02 1065.06 15 1060.95 15 1060.95 10 1060.01 10 1060.01 15 1056.06 15 1056.06 12.02 1055.06 12.02 1055.06 15 1051 15 1051 0 1050 0 1050 15 1046.06 15 1046.06 12.02 1045.06 12.02 1045.06 15 1040.95 15 1040.95 10 1040.01 10 1040.01 15 1036.06 15 1036.06 12.02 1035.06 12.02 1035.06 15 1030.95 15 1030.95 10 1030.01 10 1030.01 15 1026.06 15 1026.06 12.02 1025.06 12.02 1025.06 15 1020.95 15 1020.95 10 1020 10 1020 15 1016.06 15 1016.06 12.02 1015.06 12.02 1015.06 15 1010.95 15 1010.95 10 1010 10 1010 15 1006.06 15 1006.06 12.02 1005.06 12.02 1005.06 15 1001 15 1001 0 1000 0 1000 15 996.06 15 996.06 12.02 995.06 12.02 995.06 15 990.95 15 990.95 10 990 10 990 15 986.06 15 986.06 12.02 985.06 12.02 985.06 15 980.95 15 980.95 10 980 10 980 15 976.06 15 976.06 12.02 975.06 12.02 975.06 15 970.95 15 970.95 10 970 10 970 15 966.06 15 966.06 12.02 965.06 12.02 965.06 15 960.95 15 960.95 10 960 10 960 15 956.06 15 956.06 12.02 955.06 12.02 955.06 15 951 15 951 0 950 0 950 15 946.06 15 946.06 12.02 945.06 12.02 945.06 15 940.95 15 940.95 10 940 10 940 15 936.06 15 936.06 12.02 935.06 12.02 935.06 15 930.95 15 930.95 10 930 10 930 15 926.06 15 926.06 12.02 925.06 12.02 925.06 15 920.95 15 920.95 10 920 10 920 15 916.06 15 916.06 12.02 915.06 12.02 915.06 15 910.95 15 910.95 10 910 10 910 15 906.06 15 906.06 12.02 905.06 12.02 905.06 15 901 15 901 0 900 0 900 15 896.06 15 896.06 12.02 895.06 12.02 895.06 15 890.95 15 890.95 10 890 10 890 15 886.06 15 886.06 12.02 885.06 12.02 885.06 15 880.95 15 880.95 10 880 10 880 15 876.06 15 876.06 12.02 875.06 12.02 875.06 15 870.95 15 870.95 10 870 10 870 15 866.06 15 866.06 12.02 865.06 12.02 865.06 15 860.95 15 860.95 10 860 10 860 15 856.06 15 856.06 12.02 855.06 12.02 855.06 15 851 15 851 0 850 0 850 15 846.06 15 846.06 12.02 845.06 12.02 845.06 15 840.95 15 840.95 10 840 10 840 15 836.06 15 836.06 12.02 835.06 12.02 835.06 15 830.95 15 830.95 10 830 10 830 15 826.06 15 826.06 12.02 825.06 12.02 825.06 15 820.95 15 820.95 10 820 10 820 15 816.06 15 816.06 12.02 815.06 12.02 815.06 15 810.95 15 810.95 10 810 10 810 15 806.06 15 806.06 12.02 805.06 12.02 805.06 15 801 15 801 0 800 0 800 15 796.06 15 796.06 12.02 795.06 12.02 795.06 15 790.95 15 790.95 10 790 10 790 15 786.06 15 786.06 12.02 785.06 12.02 785.06 15 780.95 15 780.95 10 780 10 780 15 776.06 15 776.06 12.02 775.06 12.02 775.06 15 770.95 15 770.95 10 770 10 770 15 766.06 15 766.06 12.02 765.06 12.02 765.06 15 760.95 15 760.95 10 760 10 760 15 756.06 15 756.06 12.02 755.06 12.02 755.06 15 751 15 751 0 750 0 750 15 746.06 15 746.06 12.02 745.06 12.02 745.06 15 740.95 15 740.95 10 740 10 740 15 736.06 15 736.06 12.02 735.06 12.02 735.06 15 730.95 15 730.95 10 730 10 730 15 726.06 15 726.06 12.02 725.06 12.02 725.06 15 720.95 15 720.95 10 720 10 720 15 716.06 15 716.06 12.02 715.06 12.02 715.06 15 710.95 15 710.95 10 710 10 710 15 706.06 15 706.06 12.02 705.06 12.02 705.06 15 701 15 701 0 700 0 700 15 696.06 15 696.06 12.02 695.06 12.02 695.06 15 690.95 15 690.95 10 690 10 690 15 686.06 15 686.06 12.02 685.06 12.02 685.06 15 680.95 15 680.95 10 680 10 680 15 676.06 15 676.06 12.02 675.06 12.02 675.06 15 670.95 15 670.95 10 670 10 670 15 666.06 15 666.06 12.02 665.06 12.02 665.06 15 660.95 15 660.95 10 660 10 660 15 656.06 15 656.06 12.02 655.06 12.02 655.06 15 651 15 651 0 650 0 650 15 646.06 15 646.06 12.02 645.06 12.02 645.06 15 640.95 15 640.95 10 640 10 640 15 636.06 15 636.06 12.02 635.06 12.02 635.06 15 630.95 15 630.95 10 630 10 630 15 626.06 15 626.06 12.02 625.06 12.02 625.06 15 620.95 15 620.95 10 620 10 620 15 616.06 15 616.06 12.02 615.06 12.02 615.06 15 610.95 15 610.95 10 610 10 610 15 606.06 15 606.06 12.02 605.06 12.02 605.06 15 601 15 601 0 600 0 600 15 596.06 15 596.06 12.02 595.06 12.02 595.06 15 590.95 15 590.95 10 590 10 590 15 586.06 15 586.06 12.02 585.06 12.02 585.06 15 580.95 15 580.95 10 580 10 580 15 576.06 15 576.06 12.02 575.06 12.02 575.06 15 570.95 15 570.95 10 570 10 570 15 566.06 15 566.06 12.02 565.06 12.02 565.06 15 560.95 15 560.95 10 560 10 560 15 556.06 15 556.06 12.02 555.06 12.02 555.06 15 551 15 551 0 550 0 550 15 546.06 15 546.06 12.02 545.06 12.02 545.06 15 540.95 15 540.95 10 540 10 540 15 536.06 15 536.06 12.02 535.06 12.02 535.06 15 530.95 15 530.95 10 530 10 530 15 526.06 15 526.06 12.02 525.06 12.02 525.06 15 520.95 15 520.95 10 520 10 520 15 516.06 15 516.06 12.02 515.06 12.02 515.06 15 510.95 15 510.95 10 510 10 510 15 506.06 15 506.06 12.02 505.06 12.02 505.06 15 501 15 501 0 500 0 500 15 496.06 15 496.06 12.02 495.06 12.02 495.06 15 490.95 15 490.95 10 490 10 490 15 486.06 15 486.06 12.02 485.06 12.02 485.06 15 480.95 15 480.95 10 480 10 480 15 476.06 15 476.06 12.02 475.06 12.02 475.06 15 470.95 15 470.95 10 470 10 470 15 466.06 15 466.06 12.02 465.06 12.02 465.06 15 460.95 15 460.95 10 460 10 460 15 456.06 15 456.06 12.02 455.06 12.02 455.06 15 451 15 451 0 450 0 450 15 446.06 15 446.06 12.02 445.06 12.02 445.06 15 440.95 15 440.95 10 440 10 440 15 436.06 15 436.06 12.02 435.06 12.02 435.06 15 430.95 15 430.95 10 430 10 430 15 426.06 15 426.06 12.02 425.06 12.02 425.06 15 420.95 15 420.95 10 420 10 420 15 416.06 15 416.06 12.02 415.06 12.02 415.06 15 410.95 15 410.95 10 410 10 410 15 406.06 15 406.06 12.02 405.06 12.02 405.06 15 401 15 401 0 400 0 400 15 396.06 15 396.06 12.02 395.06 12.02 395.06 15 390.95 15 390.95 10 390 10 390 15 386.06 15 386.06 12.02 385.06 12.02 385.06 15 380.95 15 380.95 10 380 10 380 15 376.06 15 376.06 12.02 375.06 12.02 375.06 15 370.95 15 370.95 10 370 10 370 15 366.06 15 366.06 12.02 365.06 12.02 365.06 15 360.95 15 360.95 10 360 10 360 15 356.06 15 356.06 12.02 355.06 12.02 355.06 15 351 15 351 0 350 0 350 15 346.06 15 346.06 12.02 345.06 12.02 345.06 15 340.95 15 340.95 10 340 10 340 15 336.06 15 336.06 12.02 335.06 12.02 335.06 15 330.95 15 330.95 10 330 10 330 15 326.06 15 326.06 12.02 325.06 12.02 325.06 15 320.95 15 320.95 10 320 10 320 15 316.06 15 316.06 12.02 315.06 12.02 315.06 15 310.95 15 310.95 10 310 10 310 15 306.06 15 306.06 12.02 305.06 12.02 305.06 15 301 15 301 0 300 0 300 15 296.06 15 296.06 12.02 295.06 12.02 295.06 15 290.95 15 290.95 10 290 10 290 15 286.06 15 286.06 12.02 285.06 12.02 285.06 15 280.95 15 280.95 10 280 10 280 15 276.06 15 276.06 12.02 275.06 12.02 275.06 15 270.95 15 270.95 10 270 10 270 15 266.06 15 266.06 12.02 265.06 12.02 265.06 15 260.95 15 260.95 10 260 10 260 15 256.06 15 256.06 12.02 255.06 12.02 255.06 15 251 15 251 0 250 0 250 15 246.06 15 246.06 12.02 245.06 12.02 245.06 15 240.95 15 240.95 10 240 10 240 15 236.06 15 236.06 12.02 235.06 12.02 235.06 15 230.95 15 230.95 10 230 10 230 15 226.06 15 226.06 12.02 225.06 12.02 225.06 15 220.95 15 220.95 10 220 10 220 15 216.06 15 216.06 12.02 215.06 12.02 215.06 15 210.95 15 210.95 10 210 10 210 15 206.06 15 206.06 12.02 205.06 12.02 205.06 15 201 15 201 0 200 0 200 15 196.06 15 196.06 12.02 195.06 12.02 195.06 15 190.95 15 190.95 10 190 10 190 15 186.06 15 186.06 12.02 185.06 12.02 185.06 15 180.95 15 180.95 10 180 10 180 15 176.06 15 176.06 12.02 175.06 12.02 175.06 15 170.95 15 170.95 10 170 10 170 15 166.06 15 166.06 12.02 165.06 12.02 165.06 15 160.95 15 160.95 10 160 10 160 15 156.06 15 156.06 12.02 155.06 12.02 155.06 15 151 15 151 0 150 0 150 15 146.06 15 146.06 12.02 145.06 12.02 145.06 15 140.95 15 140.95 10 140 10 140 15 136.06 15 136.06 12.02 135.06 12.02 135.06 15 130.95 15 130.95 10 130 10 130 15 126.06 15 126.06 12.02 125.06 12.02 125.06 15 120.95 15 120.95 10 120 10 120 15 116.06 15 116.06 12.02 115.06 12.02 115.06 15 110.95 15 110.95 10 110 10 110 15 106.06 15 106.06 12.02 105.06 12.02 105.06 15 101 15 101 0 100 0 100 15 96.06 15 96.06 12.02 95.06 12.02 95.06 15 90.95 15 90.95 10 90 10 90 15 86.06 15 86.06 12.02 85.06 12.02 85.06 15 80.95 15 80.95 10 80 10 80 15 76.06 15 76.06 12.02 75.06 12.02 75.06 15 70.95 15 70.95 10 70 10 70 15 66.06 15 66.06 12.02 65.06 12.02 65.06 15 60.95 15 60.95 10 60.01 10 60.01 15 56.06 15 56.06 12.02 55.06 12.02 55.06 15 51 15 51 0 50 0 50 15 46.06 15 46.06 12.02 45.06 12.02 45.06 15 40.95 15 40.95 10 40.01 10 40.01 15 36.06 15 36.06 12.02 35.06 12.02 35.06 15 30.95 15 30.95 10 30 10 30 15 26.06 15 26.06 12.02 25.06 12.02 25.06 15 20.95 15 20.95 10 20 10 20 15 16.06 15 16.06 12.02 15.06 12.02 15.06 15 10.95 15 10.95 10 10.01 10 10.01 15 6.06 15 6.06 12.02 5.06 12.02 5.06 15 1 15 1 16 5.06 16 6.06 16 10.01 16 10.95 16 15.06 16 16.06 16 20 16 20.95 16 25.06 16 26.06 16 30 16 30.95 16 35.06 16 36.06 16 40.01 16 40.95 16 45.06 16 46.06 16 50 16 50.01 16 50.95 16 51 16 55.06 16 56.06 16 60.01 16 60.95 16 65.06 16 66.06 16 70 16 70.95 16 75.06 16 76.06 16 80 16 80.95 16 85.06 16 86.06 16 90 16 90.95 16 95.06 16 96.06 16 100 16 100 16 100.95 16 101 16 105.06 16 106.06 16 110 16 110.95 16 115.06 16 116.06 16 120 16 120.95 16 125.06 16 126.06 16 130 16 130.95 16 135.06 16 136.06 16 140 16 140.95 16 145.06 16 146.06 16 150 16 150 16 150.95 16 151 16 155.06 16 156.06 16 160 16 160.95 16 165.06 16 166.06 16 170 16 170.95 16 175.06 16 176.06 16 180 16 180.95 16 185.06 16 186.06 16 190 16 190.95 16 195.06 16 196.06 16 200 16 200 16 200.95 16 201 16 205.06 16 206.06 16 210 16 210.95 16 215.06 16 216.06 16 220 16 220.95 16 225.06 16 226.06 16 230 16 230.95 16 235.06 16 236.06 16 240 16 240.95 16 245.06 16 246.06 16 250 16 250 16 250.95 16 251 16 255.06 16 256.06 16 260 16 260.95 16 265.06 16 266.06 16 270 16 270.95 16 275.06 16 276.06 16 280 16 280.95 16 285.06 16 286.06 16 290 16 290.95 16 295.06 16 296.06 16 300 16 300 16 300.95 16 301 16 305.06 16 306.06 16 310 16 310.95 16 315.06 16 316.06 16 320 16 320.95 16 325.06 16 326.06 16 330 16 330.95 16 335.06 16 336.06 16 340 16 340.95 16 345.06 16 346.06 16 350 16 350 16 350.95 16 351 16 355.06 16 356.06 16 360 16 360.95 16 365.06 16 366.06 16 370 16 370.95 16 375.06 16 376.06 16 380 16 380.95 16 385.06 16 386.06 16 390 16 390.95 16 395.06 16 396.06 16 400 16 400 16 400.95 16 401 16 405.06 16 406.06 16 410 16 410.95 16 415.06 16 416.06 16 420 16 420.95 16 425.06 16 426.06 16 430 16 430.95 16 435.06 16 436.06 16 440 16 440.95 16 445.06 16 446.06 16 450 16 450 16 450.95 16 451 16 455.06 16 456.06 16 460 16 460.95 16 465.06 16 466.06 16 470 16 470.95 16 475.06 16 476.06 16 480 16 480.95 16 485.06 16 486.06 16 490 16 490.95 16 495.06 16 496.06 16 500 16 500 16 500.95 16 501 16 505.06 16 506.06 16 510 16 510.95 16 515.06 16 516.06 16 520 16 520.95 16 525.06 16 526.06 16 530 16 530.95 16 535.06 16 536.06 16 540 16 540.95 16 545.06 16 546.06 16 550 16 550 16 550.95 16 551 16 555.06 16 556.06 16 560 16 560.95 16 565.06 16 566.06 16 570 16 570.95 16 575.06 16 576.06 16 580 16 580.95 16 585.06 16 586.06 16 590 16 590.95 16 595.06 16 596.06 16 600 16 600 16 600.95 16 601 16 605.06 16 606.06 16 610 16 610.95 16 615.06 16 616.06 16 620 16 620.95 16 625.06 16 626.06 16 630 16 630.95 16 635.06 16 636.06 16 640 16 640.95 16 645.06 16 646.06 16 650 16 650 16 650.95 16 651 16 655.06 16 656.06 16 660 16 660.95 16 665.06 16 666.06 16 670 16 670.95 16 675.06 16 676.06 16 680 16 680.95 16 685.06 16 686.06 16 690 16 690.95 16 695.06 16 696.06 16 700 16 700 16 700.95 16 701 16 705.06 16 706.06 16 710 16 710.95 16 715.06 16 716.06 16 720 16 720.95 16 725.06 16 726.06 16 730 16 730.95 16 735.06 16 736.06 16 740 16 740.95 16 745.06 16 746.06 16 750 16 750 16 750.95 16 751 16 755.06 16 756.06 16 760 16 760.95 16 765.06 16 766.06 16 770 16 770.95 16 775.06 16 776.06 16 780 16 780.95 16 785.06 16 786.06 16 790 16 790.95 16 795.06 16 796.06 16 800 16 800 16 800.95 16 801 16 805.06 16 806.06 16 810 16 810.95 16 815.06 16 816.06 16 820 16 820.95 16 825.06 16 826.06 16 830 16 830.95 16 835.06 16 836.06 16 840 16 840.95 16 845.06 16 846.06 16 850 16 850 16 850.95 16 851 16 855.06 16 856.06 16 860 16 860.95 16 865.06 16 866.06 16 870 16 870.95 16 875.06 16 876.06 16 880 16 880.95 16 885.06 16 886.06 16 890 16 890.95 16 895.06 16 896.06 16 900 16 900 16 900.95 16 901 16 905.06 16 906.06 16 910 16 910.95 16 915.06 16 916.06 16 920 16 920.95 16 925.06 16 926.06 16 930 16 930.95 16 935.06 16 936.06 16 940 16 940.95 16 945.06 16 946.06 16 950 16 950 16 950.95 16 951 16 955.06 16 956.06 16 960 16 960.95 16 965.06 16 966.06 16 970 16 970.95 16 975.06 16 976.06 16 980 16 980.95 16 985.06 16 986.06 16 990 16 990.95 16 995.06 16 996.06 16 1000 16 1000 16 1000.95 16 1001 16 1005.06 16 1006.06 16 1010 16 1010.95 16 1015.06 16 1016.06 16 1020 16 1020.95 16 1025.06 16 1026.06 16 1030.01 16 1030.95 16 1035.06 16 1036.06 16 1040.01 16 1040.95 16 1045.06 16 1046.06 16 1050 16 1050.01 16 1050.95 16 1051 16 1055.06 16 1056.06 16 1060.01 16 1060.95 16 1065.06 16 1066.06 16 1070.01 16 1070.95 16 1075.06 16 1076.06 16 1080.01 16 1080.95 16 1085.06 16 1086.06 16 1090.01 16 1090.95 16 1095.06 16 1096.06 16 1100 16 1100.01 16 1100.95 16 1101 16 1105.06 16 1106.06 16 1110.01 16 1110.95 16 1115.06 16 1116.06 16 1120.01 16 1120.95 16 1125.06 16 1126.06 16 1130.01 16 1130.95 16 1135.06 16 1136.06 16 1140.01 16 1140.95 16 1145.06 16 1146.06 16 1150 16 1150.01 16 1150.95 16 1151 16 1155.06 16 1156.06 16 1160.01 16 1160.95 16 1165.06 16 1166.06 16 1170.01 16 1170.95 16 1175.06 16 1176.06 16 1180.01 16 1180.95 16 1185.06 16 1186.06 16 1190.01 16 1190.95 16 1195.06 16 1196.06 16 1200 16 1200.01 16 1200.95 16 1201 16 1205.06 16 1206.06 16 1210.01 16 1210.95 16 1215.06 16 1216.06 16 1220.01 16 1220.95 16 1225.06 16 1226.06 16 1230.01 16 1230.95 16 1235.06 16 1236.06 16 1240.01 16 1240.95 16 1245.06 16 1246.06 16 1250 16 1250.01 16 1250.95 16 1251 16 1255.06 16 1256.06 16 1260.01 16 1260.95 16 1265.06 16 1266.06 16 1270.01 16 1270.95 16 1275.06 16 1276.06 16 1280.01 16 1280.95 16 1285.06 16 1286.06 16 1290.01 16 1290.95 16 1295.06 16 1296.06 16 1300 16 1300.01 16 1300.95 16 1301 16 1305.06 16 1306.06 16 1310.01 16 1310.95 16 1315.06 16 1316.06 16 1320.01 16 1320.95 16 1325.06 16 1326.06 16 1330.01 16 1330.95 16 1335.06 16 1336.06 16 1340.01 16 1340.95 16 1345.06 16 1346.06 16 1350 16 1350.01 16 1350.95 16 1351 16 1355.06 16 1356.06 16 1360.01 16 1360.95 16 1365.06 16 1366.06 16 1370.01 16 1370.95 16 1375.06 16 1376.06 16 1380.01 16 1380.95 16 1385.06 16 1386.06 16 1390.01 16 1390.95 16 1395.06 16 1396.06 16 1400 16 1400.01 16 1400.95 16 1401 16 1405.06 16 1406.06 16 1410.01 16 1410.95 16 1415.06 16 1416.06 16 1420.01 16 1420.95 16 1425.06 16 1426.06 16 1430.01 16 1430.95 16 1435.06 16 1436.06 16 1440.01 16 1440.95 16 1445.06 16 1446.06 16 1450 16 1450.01 16 1450.95 16 1451 16 1455.06 16 1456.06 16 1460.01 16 1460.95 16 1465.06 16 1466.06 16 1470.01 16 1470.95 16 1475.06 16 1476.06 16 1480.01 16 1480.95 16 1485.06 16 1486.06 16 1490.01 16 1490.95 16 1495.06 16 1496.06 16 1500 16 1500.01 16 1500.95 16 1501 16 1505.06 16 1506.06 16 1510.01 16 1510.95 16 1515.06 16 1516.06 16 1520.01 16 1520.95 16 1525.06 16 1526.06 16 1530.01 16 1530.95 16 1535.06 16 1536.06 16 1540.01 16 1540.95 16 1545.06 16 1546.06 16 1550 16 1550.01 16 1550.95 16 1551 16 1555.06 16 1556.06 16 1560.01 16 1560.95 16 1565.06 16 1566.06 16 1570.01 16 1570.95 16 1575.06 16 1576.06 16 1580.01 16 1580.95 16 1585.06 16 1586.06 16 1590.01 16 1590.95 16 1595.06 16 1596.06 16 1600 16 1600.01 16 1600.95 16 1601 16 1605.06 16 1606.06 16 1610.01 16 1610.95 16 1615.06 16 1616.06 16 1620.01 16 1620.95 16 1625.06 16 1626.06 16 1630.01 16 1630.95 16 1635.06 16 1636.06 16 1640.01 16 1640.95 16 1645.06 16 1646.06 16 1650 16 1650.01 16 1650.95 16 1651 16 1655.06 16 1656.06 16 1660.01 16 1660.95 16 1665.06 16 1666.06 16 1670.01 16 1670.95 16 1675.06 16 1676.06 16 1680.01 16 1680.95 16 1685.06 16 1686.06 16 1690.01 16 1690.95 16 1695.06 16 1696.06 16 1700 16 1700.01 16 1700.95 16 1701 16 1705.06 16 1706.06 16 1710.01 16 1710.95 16 1715.06 16 1716.06 16 1720.01 16 1720.95 16 1725.06 16 1726.06 16 1730.01 16 1730.95 16 1735.06 16 1736.06 16 1740.01 16 1740.95 16 1745.06 16 1746.06 16 1750 16 1750.01 16 1750.95 16 1751 16 1755.06 16 1756.06 16 1760.01 16 1760.95 16 1765.06 16 1766.06 16 1770.01 16 1770.95 16 1775.06 16 1776.06 16 1780.01 16 1780.95 16 1785.06 16 1786.06 16 1790.01 16 1790.95 16 1795.06 16 1796.06 16 1800 16 1800.01 16 1800.95 16 1801 16 1805.06 16 1806.06 16 1810.01 16 1810.95 16 1815.06 16 1816.06 16 1820.01 16 1820.95 16 1825.06 16 1826.06 16 1830.01 16 1830.95 16 1835.06 16 1836.06 16 1840.01 16 1840.95 16 1845.06 16 1846.06 16 1850 16 1850.01 16 1850.95 16 1851 16 1855.06 16 1856.06 16 1860.01 16 1860.95 16 1865.06 16 1866.06 16 1870.01 16 1870.95 16 1875.06 16 1876.06 16 1880.01 16 1880.95 16 1885.06 16 1886.06 16 1890.01 16 1890.95 16 1895.06 16 1896.06 16 1900 16 1900.01 16 1900.95 16 1901 16 1905.06 16 1906.06 16 1910.01 16 1910.95 16 1915.06 16 1916.06 16 1920.01 16 1920.95 16 1925.06 16 1926.06 16 1930.01 16 1930.95 16 1935.06 16 1936.06 16 1940.01 16 1940.95 16 1945.06 16 1946.06 16 1950 16 1950.01 16 1950.95 16 1951 16 1955.06 16 1956.06 16 1960.01 16 1960.95 16 1965.06 16 1966.06 16 1970.01 16 1970.95 16 1975.06 16 1976.06 16 1980.01 16 1980.95 16 1985.06 16 1986.06 16 1990.01 16 1990.95 16 1995.06 16 1996.06 16 2000 16 2000.01 16 2000.95 16 2001 16 2005.06 16 2006.06 16 2010.01 16 2010.95 16 2015.06 16 2016.06 16 2020.01 16 2020.95 16 2025.06 16 2026.06 16 2030.01 16 2030.95 16 2035.06 16 2036.06 16 2040.01 16 2040.95 16 2045.06 16 2046.06 16 2050 16 2050.01 16 2050.95 16 2051 16 2055.06 16 2056.06 16 2060.01 16 2060.95 16 2065.06 16 2066.06 16 2070.01 16 2070.95 16 2075.06 16 2076.06 16 2080.01 16 2080.95 16 2085.06 16 2086.06 16 2090.01 16 2090.95 16 2095.06 16 2096.06 16 2100 16 2100.01 16 2100.95 16 2101 16 2105.06 16 2106.06 16 2110.01 16 2110.95 16 2115.06 16 2116.06 16 2120.01 16 2120.95 16 2125.06 16 2126.06 16 2130.01 16 2130.95 16 2135.06 16 2136.06 16 2140.01 16 2140.95 16 2145.06 16 2146.06 16 2150 16 2150.01 16 2150.95 16 2151 16 2155.06 16 2156.06 16 2160.01 16 2160.95 16 2165.06 16 2166.06 16 2170.01 16 2170.95 16 2175.06 16 2176.06 16 2180.01 16 2180.95 16 2185.06 16 2186.06 16 2190.01 16 2190.95 16 2195.06 16 2196.06 16 2200 16 2200.01 16 2200.95 16 2201 16 2205.06 16 2206.06 16 2210.01 16 2210.95 16 2215.06 16 2216.06 16 2220.01 16 2220.95 16 2225.06 16 2226.06 16 2230.01 16 2230.95 16 2235.06 16 2236.06 16 2240.01 16 2240.95 16 2245.06 16 2246.06 16 2250 16 2250.01 16 2250.95 16 2251 16 2255.06 16 2256.06 16 2260.01 16 2260.95 16 2265.06 16 2266.06 16 2270.01 16 2270.95 16 2275.06 16 2276.06 16 2280.01 16 2280.95 16 2285.06 16 2286.06 16 2290.01 16 2290.95 16 2295.06 16 2296.06 16 2300 16 2300.01 16 2300.95 16 2301 16 2305.06 16 2306.06 16 2310.01 16 2310.95 16 2315.06 16 2316.06 16 2320.01 16 2320.95 16 2325.06 16 2326.06 16 2330.01 16 2330.95 16 2335.06 16 2336.06 16 2340.01 16 2340.95 16 2345.06 16 2346.06 16 2350 16 2350.01 16 2350.95 16 2351 16 2355.06 16 2356.06 16 2360.01 16 2360.95 16 2365.06 16 2366.06 16 2370.01 16 2370.95 16 2375.06 16 2376.06 16 2380.01 16 2380.95 16 2385.06 16 2386.06 16 2390.01 16 2390.95 16 2395.06 16 2396.06 16 2400 16 2400.01 16 2400.95 16 2401 16 2405.06 16 2406.06 16 2410.01 16 2410.95 16 2415.06 16 2416.06 16 2420.01 16 2420.95 16 2425.06 16 2426.06 16 2430.01 16 2430.95 16 2435.06 16 2436.06 16 2440.01 16 2440.95 16 2445.06 16 2446.06 16 2450 16 2450.01 16 2450.95 16 2451 16 2455.06 16 2456.06 16 2460.01 16 2460.95 16 2465.06 16 2466.06 16 2470.01 16 2470.95 16 2475.06 16 2476.06 16 2480.01 16 2480.95 16 2485.06 16 2486.06 16 2490.01 16 2490.95 16 2495.06 16 2496.06 16 2500 16 2500.01 16 2500.95 16 2501 16 2505.06 16 2506.06 16 2510.01 16 2510.95 16 2515.06 16 2516.06 16 2520.01 16 2520.95 16 2525.06 16 2526.06 16 2530.01 16 2530.95 16 2535.06 16 2536.06 16 2540.01 16 2540.95 16 2545.06 16 2546.06 16 2550 16 2550.01 16 2550.95 16 2551 16 2555.06 16 2556.06 16 2560.01 16 2560.95 16 2565.06 16 2566.06 16 2570.01 16 2570.95 16 2575.06 16 2576.06 16 2580.01 16 2580.95 16 2585.06 16 2586.06 16 2590.01 16 2590.95 16 2595.06 16 2596.06 16 2600 16 2600.01 16 2600.95 16 2601 16 2605.06 16 2606.06 16 2610.01 16 2610.95 16 2615.06 16 2616.06 16 2620.01 16 2620.95 16 2625.06 16 2626.06 16 2630.01 16 2630.95 16 2635.06 16 2636.06 16 2640.01 16 2640.95 16 2645.06 16 2646.06 16 2650 16 2650.01 16 2650.95 16 2651 16 2655.06 16 2656.06 16 2660.01 16 2660.95 16 2665.06 16 2666.06 16 2670.01 16 2670.95 16 2675.06 16 2676.06 16 2680.01 16 2680.95 16 2685.06 16 2686.06 16 2690.01 16 2690.95 16 2695.06 16 2696.06 16 2700 16 2700.01 16 2700.95 16 2701 16 2705.06 16 2706.06 16 2710.01 16 2710.95 16 2715.06 16 2716.06 16 2720.01 16 2720.95 16 2725.06 16 2726.06 16 2730.01 16 2730.95 16 2735.06 16 2736.06 16 2740.01 16 2740.95 16 2745.06 16 2746.06 16 2750 16 2750.01 16 2750.95 16 2751 16 2755.06 16 2756.06 16 2760.01 16 2760.95 16 2765.06 16 2766.06 16 2770.01 16 2770.95 16 2775.06 16 2776.06 16 2780.01 16 2780.95 16 2785.06 16 2786.06 16 2790.01 16 2790.95 16 2795.06 16 2796.06 16 2800 16 2800.01 16 2800.95 16 2801 16 2805.06 16 2806.06 16 2810.01 16 2810.95 16 2815.06 16 2816.06 16 2820.01 16 2820.95 16 2825.06 16 2826.06 16 2830.01 16 2830.95 16 2835.06 16 2836.06 16 2840.01 16 2840.95 16 2845.06 16 2846.06 16 2850 16 2850.01 16 2850.95 16 2851 16 2855.06 16 2856.06 16 2860.01 16 2860.95 16 2865.06 16 2866.06 16 2870.01 16 2870.95 16 2875.06 16 2876.06 16 2880.01 16 2880.95 16 2885.06 16 2886.06 16 2890.01 16 2890.95 16 2895.06 16 2896.06 16 2900 16 2900.01 16 2900.95 16 2901 16 2905.06 16 2906.06 16 2910.01 16 2910.95 16 2915.06 16 2916.06 16 2920.01 16 2920.95 16 2925.06 16 2926.06 16 2930.01 16 2930.95 16 2935.06 16 2936.06 16 2940.01 16 2940.95 16 2945.06 16 2946.06 16 2950 16 2950.01 16 2950.95 16 2951 16 2955.06 16 2956.06 16 2960.01 16 2960.95 16 2965.06 16 2966.06 16 2970.01 16 2970.95 16 2975.06 16 2976.06 16 2980.01 16 2980.95 16 3030.01 16 3030.01 15 2980.95 15"/></svg>